<mxfile host="app.diagrams.net" agent="Mozilla/5.0 (Windows NT 10.0; Win64; x64) AppleWebKit/537.36 (KHTML, like Gecko) Chrome/131.0.0.0 Safari/537.36" version="25.0.3" pages="4">
  <diagram name="Sum_of_2_numbers" id="cp7l-ZZTf7Rztb3W4R47">
    <mxGraphModel dx="882" dy="458" grid="1" gridSize="10" guides="1" tooltips="1" connect="1" arrows="1" fold="1" page="1" pageScale="1" pageWidth="850" pageHeight="1100" math="0" shadow="0">
      <root>
        <mxCell id="0" />
        <mxCell id="1" parent="0" />
        <mxCell id="_HUWMJ0bEB_SSKzv0rb7-9" style="edgeStyle=orthogonalEdgeStyle;rounded=0;orthogonalLoop=1;jettySize=auto;html=1;entryX=0.5;entryY=0;entryDx=0;entryDy=0;" edge="1" parent="1" source="_HUWMJ0bEB_SSKzv0rb7-1" target="_HUWMJ0bEB_SSKzv0rb7-2">
          <mxGeometry relative="1" as="geometry" />
        </mxCell>
        <mxCell id="_HUWMJ0bEB_SSKzv0rb7-1" value="Start" style="ellipse;whiteSpace=wrap;html=1;" vertex="1" parent="1">
          <mxGeometry x="330" y="40" width="120" height="60" as="geometry" />
        </mxCell>
        <mxCell id="_HUWMJ0bEB_SSKzv0rb7-10" style="edgeStyle=orthogonalEdgeStyle;rounded=0;orthogonalLoop=1;jettySize=auto;html=1;entryX=0.5;entryY=0;entryDx=0;entryDy=0;" edge="1" parent="1" source="_HUWMJ0bEB_SSKzv0rb7-2" target="_HUWMJ0bEB_SSKzv0rb7-3">
          <mxGeometry relative="1" as="geometry" />
        </mxCell>
        <mxCell id="_HUWMJ0bEB_SSKzv0rb7-2" value="input a,b" style="shape=parallelogram;perimeter=parallelogramPerimeter;whiteSpace=wrap;html=1;fixedSize=1;" vertex="1" parent="1">
          <mxGeometry x="330" y="160" width="120" height="40" as="geometry" />
        </mxCell>
        <mxCell id="_HUWMJ0bEB_SSKzv0rb7-3" value="Add a and b and store it in sum." style="rounded=0;whiteSpace=wrap;html=1;" vertex="1" parent="1">
          <mxGeometry x="330" y="250" width="120" height="40" as="geometry" />
        </mxCell>
        <mxCell id="_HUWMJ0bEB_SSKzv0rb7-13" style="edgeStyle=orthogonalEdgeStyle;rounded=0;orthogonalLoop=1;jettySize=auto;html=1;entryX=0.5;entryY=0;entryDx=0;entryDy=0;" edge="1" parent="1" source="_HUWMJ0bEB_SSKzv0rb7-4" target="_HUWMJ0bEB_SSKzv0rb7-6">
          <mxGeometry relative="1" as="geometry" />
        </mxCell>
        <mxCell id="_HUWMJ0bEB_SSKzv0rb7-4" value="Display sum" style="shape=parallelogram;perimeter=parallelogramPerimeter;whiteSpace=wrap;html=1;fixedSize=1;" vertex="1" parent="1">
          <mxGeometry x="320" y="360" width="120" height="60" as="geometry" />
        </mxCell>
        <mxCell id="_HUWMJ0bEB_SSKzv0rb7-6" value="End" style="ellipse;whiteSpace=wrap;html=1;" vertex="1" parent="1">
          <mxGeometry x="320" y="450" width="120" height="80" as="geometry" />
        </mxCell>
        <mxCell id="_HUWMJ0bEB_SSKzv0rb7-11" style="edgeStyle=orthogonalEdgeStyle;rounded=0;orthogonalLoop=1;jettySize=auto;html=1;exitX=0.5;exitY=1;exitDx=0;exitDy=0;" edge="1" parent="1" source="_HUWMJ0bEB_SSKzv0rb7-3" target="_HUWMJ0bEB_SSKzv0rb7-3">
          <mxGeometry relative="1" as="geometry" />
        </mxCell>
        <mxCell id="_HUWMJ0bEB_SSKzv0rb7-12" style="edgeStyle=orthogonalEdgeStyle;rounded=0;orthogonalLoop=1;jettySize=auto;html=1;entryX=0.588;entryY=0.132;entryDx=0;entryDy=0;entryPerimeter=0;" edge="1" parent="1" source="_HUWMJ0bEB_SSKzv0rb7-3" target="_HUWMJ0bEB_SSKzv0rb7-4">
          <mxGeometry relative="1" as="geometry" />
        </mxCell>
      </root>
    </mxGraphModel>
  </diagram>
  <diagram id="PEL-7MDDjGOzB-K8EzK5" name="even/odd">
    <mxGraphModel dx="794" dy="412" grid="1" gridSize="10" guides="1" tooltips="1" connect="1" arrows="1" fold="1" page="1" pageScale="1" pageWidth="827" pageHeight="1169" math="0" shadow="0">
      <root>
        <mxCell id="0" />
        <mxCell id="1" parent="0" />
        <mxCell id="tAixSzYHw1HnBbmjRgFo-8" value="" style="edgeStyle=orthogonalEdgeStyle;rounded=0;orthogonalLoop=1;jettySize=auto;html=1;" edge="1" parent="1" source="tAixSzYHw1HnBbmjRgFo-1" target="tAixSzYHw1HnBbmjRgFo-2">
          <mxGeometry relative="1" as="geometry" />
        </mxCell>
        <mxCell id="tAixSzYHw1HnBbmjRgFo-1" value="Start" style="ellipse;whiteSpace=wrap;html=1;" vertex="1" parent="1">
          <mxGeometry x="260" y="20" width="120" height="50" as="geometry" />
        </mxCell>
        <mxCell id="tAixSzYHw1HnBbmjRgFo-9" value="" style="edgeStyle=orthogonalEdgeStyle;rounded=0;orthogonalLoop=1;jettySize=auto;html=1;" edge="1" parent="1" source="tAixSzYHw1HnBbmjRgFo-2" target="tAixSzYHw1HnBbmjRgFo-4">
          <mxGeometry relative="1" as="geometry" />
        </mxCell>
        <mxCell id="tAixSzYHw1HnBbmjRgFo-2" value="Input a" style="shape=parallelogram;perimeter=parallelogramPerimeter;whiteSpace=wrap;html=1;fixedSize=1;" vertex="1" parent="1">
          <mxGeometry x="260" y="100" width="120" height="60" as="geometry" />
        </mxCell>
        <mxCell id="tAixSzYHw1HnBbmjRgFo-10" style="edgeStyle=orthogonalEdgeStyle;rounded=0;orthogonalLoop=1;jettySize=auto;html=1;entryX=0.5;entryY=0;entryDx=0;entryDy=0;" edge="1" parent="1" source="tAixSzYHw1HnBbmjRgFo-4" target="tAixSzYHw1HnBbmjRgFo-5">
          <mxGeometry relative="1" as="geometry" />
        </mxCell>
        <mxCell id="tAixSzYHw1HnBbmjRgFo-4" value="If a%2==0" style="rhombus;whiteSpace=wrap;html=1;" vertex="1" parent="1">
          <mxGeometry x="280" y="190" width="80" height="80" as="geometry" />
        </mxCell>
        <mxCell id="tAixSzYHw1HnBbmjRgFo-14" style="edgeStyle=orthogonalEdgeStyle;rounded=0;orthogonalLoop=1;jettySize=auto;html=1;entryX=0;entryY=0.5;entryDx=0;entryDy=0;" edge="1" parent="1" source="tAixSzYHw1HnBbmjRgFo-5" target="tAixSzYHw1HnBbmjRgFo-7">
          <mxGeometry relative="1" as="geometry" />
        </mxCell>
        <mxCell id="tAixSzYHw1HnBbmjRgFo-5" value="a is odd" style="shape=parallelogram;perimeter=parallelogramPerimeter;whiteSpace=wrap;html=1;fixedSize=1;" vertex="1" parent="1">
          <mxGeometry x="140" y="290" width="120" height="60" as="geometry" />
        </mxCell>
        <mxCell id="tAixSzYHw1HnBbmjRgFo-15" style="edgeStyle=orthogonalEdgeStyle;rounded=0;orthogonalLoop=1;jettySize=auto;html=1;entryX=1;entryY=0.5;entryDx=0;entryDy=0;" edge="1" parent="1" source="tAixSzYHw1HnBbmjRgFo-6" target="tAixSzYHw1HnBbmjRgFo-7">
          <mxGeometry relative="1" as="geometry" />
        </mxCell>
        <mxCell id="tAixSzYHw1HnBbmjRgFo-6" value="a is even" style="shape=parallelogram;perimeter=parallelogramPerimeter;whiteSpace=wrap;html=1;fixedSize=1;" vertex="1" parent="1">
          <mxGeometry x="400" y="290" width="120" height="60" as="geometry" />
        </mxCell>
        <mxCell id="tAixSzYHw1HnBbmjRgFo-7" value="End" style="ellipse;whiteSpace=wrap;html=1;" vertex="1" parent="1">
          <mxGeometry x="280" y="400" width="80" height="40" as="geometry" />
        </mxCell>
        <mxCell id="tAixSzYHw1HnBbmjRgFo-11" style="edgeStyle=orthogonalEdgeStyle;rounded=0;orthogonalLoop=1;jettySize=auto;html=1;entryX=0.572;entryY=-0.033;entryDx=0;entryDy=0;entryPerimeter=0;" edge="1" parent="1" source="tAixSzYHw1HnBbmjRgFo-4" target="tAixSzYHw1HnBbmjRgFo-6">
          <mxGeometry relative="1" as="geometry" />
        </mxCell>
        <mxCell id="tAixSzYHw1HnBbmjRgFo-12" value="False" style="text;html=1;align=center;verticalAlign=middle;resizable=0;points=[];autosize=1;strokeColor=none;fillColor=none;" vertex="1" parent="1">
          <mxGeometry x="195" y="198" width="50" height="30" as="geometry" />
        </mxCell>
        <mxCell id="tAixSzYHw1HnBbmjRgFo-13" value="True" style="text;html=1;align=center;verticalAlign=middle;resizable=0;points=[];autosize=1;strokeColor=none;fillColor=none;" vertex="1" parent="1">
          <mxGeometry x="415" y="198" width="50" height="30" as="geometry" />
        </mxCell>
      </root>
    </mxGraphModel>
  </diagram>
  <diagram id="kCT6GcYJ7lMcP6Ey-gSE" name="greatest of 3 numbers">
    <mxGraphModel dx="1917" dy="634" grid="1" gridSize="10" guides="1" tooltips="1" connect="1" arrows="1" fold="1" page="1" pageScale="1" pageWidth="827" pageHeight="1169" math="0" shadow="0">
      <root>
        <object label="" id="0">
          <mxCell />
        </object>
        <mxCell id="1" parent="0" />
        <mxCell id="gqYLdBMKKW9qXYO8Rfjo-7" value="" style="edgeStyle=orthogonalEdgeStyle;rounded=0;orthogonalLoop=1;jettySize=auto;html=1;" edge="1" parent="1" source="gqYLdBMKKW9qXYO8Rfjo-1" target="gqYLdBMKKW9qXYO8Rfjo-2">
          <mxGeometry relative="1" as="geometry" />
        </mxCell>
        <mxCell id="gqYLdBMKKW9qXYO8Rfjo-1" value="Start" style="ellipse;whiteSpace=wrap;html=1;" vertex="1" parent="1">
          <mxGeometry x="95" width="130" height="60" as="geometry" />
        </mxCell>
        <mxCell id="gqYLdBMKKW9qXYO8Rfjo-8" value="" style="edgeStyle=orthogonalEdgeStyle;rounded=0;orthogonalLoop=1;jettySize=auto;html=1;" edge="1" parent="1" source="gqYLdBMKKW9qXYO8Rfjo-2" target="gqYLdBMKKW9qXYO8Rfjo-3">
          <mxGeometry relative="1" as="geometry" />
        </mxCell>
        <mxCell id="gqYLdBMKKW9qXYO8Rfjo-2" value="input a,b,c" style="shape=parallelogram;perimeter=parallelogramPerimeter;whiteSpace=wrap;html=1;fixedSize=1;" vertex="1" parent="1">
          <mxGeometry x="100" y="130" width="120" height="60" as="geometry" />
        </mxCell>
        <mxCell id="gqYLdBMKKW9qXYO8Rfjo-9" style="edgeStyle=orthogonalEdgeStyle;rounded=0;orthogonalLoop=1;jettySize=auto;html=1;exitX=1;exitY=0.5;exitDx=0;exitDy=0;entryX=0;entryY=0.5;entryDx=0;entryDy=0;" edge="1" parent="1" source="gqYLdBMKKW9qXYO8Rfjo-3" target="gqYLdBMKKW9qXYO8Rfjo-4">
          <mxGeometry relative="1" as="geometry" />
        </mxCell>
        <mxCell id="gqYLdBMKKW9qXYO8Rfjo-11" style="edgeStyle=orthogonalEdgeStyle;rounded=0;orthogonalLoop=1;jettySize=auto;html=1;exitX=0;exitY=0.5;exitDx=0;exitDy=0;entryX=0;entryY=0.5;entryDx=0;entryDy=0;" edge="1" parent="1" source="gqYLdBMKKW9qXYO8Rfjo-3" target="gqYLdBMKKW9qXYO8Rfjo-10">
          <mxGeometry relative="1" as="geometry" />
        </mxCell>
        <mxCell id="gqYLdBMKKW9qXYO8Rfjo-3" value="if a&amp;gt;b and&amp;nbsp;&lt;div&gt;a&amp;gt;c&lt;/div&gt;" style="rhombus;whiteSpace=wrap;html=1;" vertex="1" parent="1">
          <mxGeometry x="115" y="240" width="90" height="80" as="geometry" />
        </mxCell>
        <mxCell id="gqYLdBMKKW9qXYO8Rfjo-13" style="edgeStyle=orthogonalEdgeStyle;rounded=0;orthogonalLoop=1;jettySize=auto;html=1;entryX=0;entryY=0.5;entryDx=0;entryDy=0;" edge="1" parent="1" source="gqYLdBMKKW9qXYO8Rfjo-4" target="gqYLdBMKKW9qXYO8Rfjo-12">
          <mxGeometry relative="1" as="geometry" />
        </mxCell>
        <mxCell id="gqYLdBMKKW9qXYO8Rfjo-18" style="edgeStyle=orthogonalEdgeStyle;rounded=0;orthogonalLoop=1;jettySize=auto;html=1;exitX=1;exitY=0.5;exitDx=0;exitDy=0;entryX=0.5;entryY=0;entryDx=0;entryDy=0;" edge="1" parent="1" source="gqYLdBMKKW9qXYO8Rfjo-4" target="gqYLdBMKKW9qXYO8Rfjo-17">
          <mxGeometry relative="1" as="geometry" />
        </mxCell>
        <mxCell id="gqYLdBMKKW9qXYO8Rfjo-4" value="elif b&amp;gt;a&amp;nbsp;&lt;div&gt;and&amp;nbsp;&lt;div&gt;b&amp;gt;c&lt;/div&gt;&lt;/div&gt;" style="rhombus;whiteSpace=wrap;html=1;" vertex="1" parent="1">
          <mxGeometry x="280" y="240" width="80" height="80" as="geometry" />
        </mxCell>
        <mxCell id="gqYLdBMKKW9qXYO8Rfjo-21" style="edgeStyle=orthogonalEdgeStyle;rounded=0;orthogonalLoop=1;jettySize=auto;html=1;entryX=0;entryY=0.5;entryDx=0;entryDy=0;" edge="1" parent="1" source="gqYLdBMKKW9qXYO8Rfjo-10" target="gqYLdBMKKW9qXYO8Rfjo-20">
          <mxGeometry relative="1" as="geometry" />
        </mxCell>
        <mxCell id="gqYLdBMKKW9qXYO8Rfjo-10" value="Display a&amp;nbsp;&lt;div&gt;is greater&lt;/div&gt;" style="shape=parallelogram;perimeter=parallelogramPerimeter;whiteSpace=wrap;html=1;fixedSize=1;" vertex="1" parent="1">
          <mxGeometry x="150" y="360" width="120" height="60" as="geometry" />
        </mxCell>
        <mxCell id="gqYLdBMKKW9qXYO8Rfjo-22" style="edgeStyle=orthogonalEdgeStyle;rounded=0;orthogonalLoop=1;jettySize=auto;html=1;entryX=0.5;entryY=0;entryDx=0;entryDy=0;" edge="1" parent="1" source="gqYLdBMKKW9qXYO8Rfjo-12" target="gqYLdBMKKW9qXYO8Rfjo-20">
          <mxGeometry relative="1" as="geometry" />
        </mxCell>
        <mxCell id="gqYLdBMKKW9qXYO8Rfjo-12" value="Display b&amp;nbsp;&lt;div&gt;is greater&lt;/div&gt;" style="shape=parallelogram;perimeter=parallelogramPerimeter;whiteSpace=wrap;html=1;fixedSize=1;" vertex="1" parent="1">
          <mxGeometry x="341" y="350" width="120" height="60" as="geometry" />
        </mxCell>
        <mxCell id="gqYLdBMKKW9qXYO8Rfjo-14" value="True" style="text;html=1;align=center;verticalAlign=middle;resizable=0;points=[];autosize=1;strokeColor=none;fillColor=none;" vertex="1" parent="1">
          <mxGeometry x="65" y="238" width="50" height="30" as="geometry" />
        </mxCell>
        <mxCell id="gqYLdBMKKW9qXYO8Rfjo-15" value="False" style="text;html=1;align=center;verticalAlign=middle;resizable=0;points=[];autosize=1;strokeColor=none;fillColor=none;" vertex="1" parent="1">
          <mxGeometry x="215" y="248" width="50" height="30" as="geometry" />
        </mxCell>
        <mxCell id="gqYLdBMKKW9qXYO8Rfjo-16" value="True" style="text;html=1;align=center;verticalAlign=middle;resizable=0;points=[];autosize=1;strokeColor=none;fillColor=none;" vertex="1" parent="1">
          <mxGeometry x="275" y="318" width="50" height="30" as="geometry" />
        </mxCell>
        <mxCell id="gqYLdBMKKW9qXYO8Rfjo-23" style="edgeStyle=orthogonalEdgeStyle;rounded=0;orthogonalLoop=1;jettySize=auto;html=1;entryX=1;entryY=0.5;entryDx=0;entryDy=0;" edge="1" parent="1" source="gqYLdBMKKW9qXYO8Rfjo-17" target="gqYLdBMKKW9qXYO8Rfjo-20">
          <mxGeometry relative="1" as="geometry">
            <Array as="points">
              <mxPoint x="480" y="380" />
              <mxPoint x="480" y="470" />
              <mxPoint x="490" y="470" />
              <mxPoint x="490" y="570" />
            </Array>
          </mxGeometry>
        </mxCell>
        <mxCell id="gqYLdBMKKW9qXYO8Rfjo-17" value="Display c&amp;nbsp;&lt;div&gt;is greater&lt;/div&gt;" style="shape=parallelogram;perimeter=parallelogramPerimeter;whiteSpace=wrap;html=1;fixedSize=1;" vertex="1" parent="1">
          <mxGeometry x="500" y="350" width="120" height="60" as="geometry" />
        </mxCell>
        <mxCell id="gqYLdBMKKW9qXYO8Rfjo-19" value="False" style="text;html=1;align=center;verticalAlign=middle;resizable=0;points=[];autosize=1;strokeColor=none;fillColor=none;" vertex="1" parent="1">
          <mxGeometry x="375" y="258" width="50" height="30" as="geometry" />
        </mxCell>
        <mxCell id="gqYLdBMKKW9qXYO8Rfjo-20" value="End" style="ellipse;whiteSpace=wrap;html=1;" vertex="1" parent="1">
          <mxGeometry x="341" y="530" width="120" height="80" as="geometry" />
        </mxCell>
      </root>
    </mxGraphModel>
  </diagram>
  <diagram id="ym7CiNuAiqmi0NAr0k59" name="ATM Withdraw">
    <mxGraphModel dx="2265" dy="749" grid="1" gridSize="10" guides="1" tooltips="1" connect="1" arrows="1" fold="1" page="1" pageScale="1" pageWidth="827" pageHeight="1169" math="0" shadow="0">
      <root>
        <mxCell id="0" />
        <mxCell id="1" parent="0" />
        <mxCell id="66GD6slLFr1FBJrWMoP1-5" style="edgeStyle=orthogonalEdgeStyle;rounded=0;orthogonalLoop=1;jettySize=auto;html=1;entryX=0.5;entryY=0;entryDx=0;entryDy=0;" edge="1" parent="1" source="66GD6slLFr1FBJrWMoP1-1" target="66GD6slLFr1FBJrWMoP1-2">
          <mxGeometry relative="1" as="geometry" />
        </mxCell>
        <mxCell id="66GD6slLFr1FBJrWMoP1-1" value="Start" style="ellipse;whiteSpace=wrap;html=1;" vertex="1" parent="1">
          <mxGeometry x="340" y="10" width="120" height="60" as="geometry" />
        </mxCell>
        <mxCell id="66GD6slLFr1FBJrWMoP1-6" value="" style="edgeStyle=orthogonalEdgeStyle;rounded=0;orthogonalLoop=1;jettySize=auto;html=1;" edge="1" parent="1" source="66GD6slLFr1FBJrWMoP1-2" target="66GD6slLFr1FBJrWMoP1-3">
          <mxGeometry relative="1" as="geometry" />
        </mxCell>
        <mxCell id="66GD6slLFr1FBJrWMoP1-2" value="input name- n,&lt;div&gt;ac no. - a&lt;/div&gt;" style="shape=parallelogram;perimeter=parallelogramPerimeter;whiteSpace=wrap;html=1;fixedSize=1;" vertex="1" parent="1">
          <mxGeometry x="340" y="110" width="120" height="60" as="geometry" />
        </mxCell>
        <mxCell id="66GD6slLFr1FBJrWMoP1-7" value="" style="edgeStyle=orthogonalEdgeStyle;rounded=0;orthogonalLoop=1;jettySize=auto;html=1;" edge="1" parent="1" source="66GD6slLFr1FBJrWMoP1-3" target="66GD6slLFr1FBJrWMoP1-4">
          <mxGeometry relative="1" as="geometry" />
        </mxCell>
        <mxCell id="66GD6slLFr1FBJrWMoP1-16" style="edgeStyle=orthogonalEdgeStyle;rounded=0;orthogonalLoop=1;jettySize=auto;html=1;exitX=1;exitY=0.5;exitDx=0;exitDy=0;entryX=1;entryY=0.5;entryDx=0;entryDy=0;" edge="1" parent="1" source="66GD6slLFr1FBJrWMoP1-3" target="66GD6slLFr1FBJrWMoP1-15">
          <mxGeometry relative="1" as="geometry" />
        </mxCell>
        <mxCell id="66GD6slLFr1FBJrWMoP1-3" value="if valid user" style="rhombus;whiteSpace=wrap;html=1;" vertex="1" parent="1">
          <mxGeometry x="360" y="200" width="80" height="80" as="geometry" />
        </mxCell>
        <mxCell id="66GD6slLFr1FBJrWMoP1-12" value="" style="edgeStyle=orthogonalEdgeStyle;rounded=0;orthogonalLoop=1;jettySize=auto;html=1;" edge="1" parent="1" source="66GD6slLFr1FBJrWMoP1-4" target="66GD6slLFr1FBJrWMoP1-11">
          <mxGeometry relative="1" as="geometry" />
        </mxCell>
        <mxCell id="66GD6slLFr1FBJrWMoP1-4" value="Enter amount -m" style="shape=parallelogram;perimeter=parallelogramPerimeter;whiteSpace=wrap;html=1;fixedSize=1;" vertex="1" parent="1">
          <mxGeometry x="340" y="320" width="120" height="60" as="geometry" />
        </mxCell>
        <mxCell id="66GD6slLFr1FBJrWMoP1-8" value="True" style="text;html=1;align=center;verticalAlign=middle;resizable=0;points=[];autosize=1;strokeColor=none;fillColor=none;" vertex="1" parent="1">
          <mxGeometry x="355" y="278" width="50" height="30" as="geometry" />
        </mxCell>
        <mxCell id="66GD6slLFr1FBJrWMoP1-18" style="edgeStyle=orthogonalEdgeStyle;rounded=0;orthogonalLoop=1;jettySize=auto;html=1;" edge="1" parent="1" source="66GD6slLFr1FBJrWMoP1-11">
          <mxGeometry relative="1" as="geometry">
            <mxPoint x="240" y="550" as="targetPoint" />
          </mxGeometry>
        </mxCell>
        <mxCell id="66GD6slLFr1FBJrWMoP1-11" value="if amount&lt;div&gt;in Ac&lt;/div&gt;" style="rhombus;whiteSpace=wrap;html=1;" vertex="1" parent="1">
          <mxGeometry x="360" y="420" width="80" height="80" as="geometry" />
        </mxCell>
        <mxCell id="66GD6slLFr1FBJrWMoP1-23" style="edgeStyle=orthogonalEdgeStyle;rounded=0;orthogonalLoop=1;jettySize=auto;html=1;exitX=0.5;exitY=1;exitDx=0;exitDy=0;entryX=0.5;entryY=0;entryDx=0;entryDy=0;" edge="1" parent="1" source="66GD6slLFr1FBJrWMoP1-13" target="66GD6slLFr1FBJrWMoP1-15">
          <mxGeometry relative="1" as="geometry" />
        </mxCell>
        <mxCell id="66GD6slLFr1FBJrWMoP1-13" value="Display m" style="shape=parallelogram;perimeter=parallelogramPerimeter;whiteSpace=wrap;html=1;fixedSize=1;" vertex="1" parent="1">
          <mxGeometry x="330" y="550" width="120" height="60" as="geometry" />
        </mxCell>
        <mxCell id="66GD6slLFr1FBJrWMoP1-29" style="edgeStyle=orthogonalEdgeStyle;rounded=0;orthogonalLoop=1;jettySize=auto;html=1;entryX=0;entryY=0.5;entryDx=0;entryDy=0;" edge="1" parent="1" source="66GD6slLFr1FBJrWMoP1-14" target="66GD6slLFr1FBJrWMoP1-15">
          <mxGeometry relative="1" as="geometry" />
        </mxCell>
        <mxCell id="66GD6slLFr1FBJrWMoP1-14" value="No amount&amp;nbsp;&lt;div&gt;in bank&lt;/div&gt;" style="shape=parallelogram;perimeter=parallelogramPerimeter;whiteSpace=wrap;html=1;fixedSize=1;" vertex="1" parent="1">
          <mxGeometry x="180" y="555" width="120" height="60" as="geometry" />
        </mxCell>
        <mxCell id="66GD6slLFr1FBJrWMoP1-15" value="End" style="ellipse;whiteSpace=wrap;html=1;" vertex="1" parent="1">
          <mxGeometry x="294" y="760" width="120" height="60" as="geometry" />
        </mxCell>
        <mxCell id="66GD6slLFr1FBJrWMoP1-17" style="edgeStyle=orthogonalEdgeStyle;rounded=0;orthogonalLoop=1;jettySize=auto;html=1;entryX=0.589;entryY=0.011;entryDx=0;entryDy=0;entryPerimeter=0;" edge="1" parent="1" source="66GD6slLFr1FBJrWMoP1-11" target="66GD6slLFr1FBJrWMoP1-13">
          <mxGeometry relative="1" as="geometry" />
        </mxCell>
        <mxCell id="66GD6slLFr1FBJrWMoP1-19" value="True" style="text;html=1;align=center;verticalAlign=middle;resizable=0;points=[];autosize=1;strokeColor=none;fillColor=none;" vertex="1" parent="1">
          <mxGeometry x="405" y="498" width="50" height="30" as="geometry" />
        </mxCell>
        <mxCell id="66GD6slLFr1FBJrWMoP1-20" value="False" style="text;html=1;align=center;verticalAlign=middle;resizable=0;points=[];autosize=1;strokeColor=none;fillColor=none;" vertex="1" parent="1">
          <mxGeometry x="255" y="438" width="50" height="30" as="geometry" />
        </mxCell>
      </root>
    </mxGraphModel>
  </diagram>
</mxfile>
